<?xml version="1.0" encoding="utf-8"?>
<!-- Generator: Adobe Illustrator 21.1.0, SVG Export Plug-In . SVG Version: 6.00 Build 0)  -->
<svg version="1.1" id="Ebene_1" xmlns="http://www.w3.org/2000/svg" xmlns:xlink="http://www.w3.org/1999/xlink" x="0px" y="0px"
	 viewBox="0 0 659 313" style="enable-background:new 0 0 659 313;" xml:space="preserve">
<style type="text/css">
	.st0{fill:#FFFFFF;}
	.st1{fill:#AD182E;}
	.st2{fill:#C01539;}
	.st3{fill:none;stroke:#FFFFFF;stroke-width:0.75;stroke-miterlimit:10;}
	.st4{fill:#1C1C1B;}
</style>
<g>
	<path d="M311.4,140.6c44,0,61.2,23.1,53.9,57.3c-7.1,34.3-34.3,57.3-78.2,57.3c-44,0-61.2-23.1-54.1-57.3
		C240.3,163.6,267.4,140.6,311.4,140.6z M293.3,225.9c8.4,0,13.6-6.5,18.1-28c4.7-21.6,2.2-28-6.2-28s-13.6,6.5-18.3,28
		C282.3,219.4,284.9,225.9,293.3,225.9z"/>
	<path d="M432,177.2c1.1-5.4,0.9-8.4-0.4-10.1c-1.5-1.7-3.9-2.4-7.3-2.4c-8.6,0-11.9,3.2-12.9,8c-0.9,4.7,0.6,7.1,14,9.1
		c40.9,5.8,50.2,14,45.9,35.1c-5.2,23.5-24.4,38.4-67.5,38.4c-35.1,0-54.5-10.3-48.9-39.2h47c-0.9,6-0.6,9.7,0.9,11.9
		c1.5,2.4,4.3,3.2,8,3.2c8.2,0,11.4-4.1,12.5-9.3c0.6-3.2,0-6.7-6.2-8c-3.2-0.6-7.1-1.5-22.2-4.5c-25.4-5.2-34-12.7-30-32.5
		c4.3-19.8,23.5-36.2,62.1-36.2c33.4,0,54.7,8.2,49.6,36.6H432z"/>
	<path d="M535.8,177.2c1.1-5.4,0.9-8.4-0.4-10.1c-1.5-1.7-3.9-2.4-7.3-2.4c-8.6,0-11.9,3.2-12.9,8c-0.9,4.7,0.6,7.1,14,9.1
		c40.9,5.8,50.2,14,45.9,35.1c-5.2,23.5-24.4,38.4-67.5,38.4c-35.1,0-54.5-10.3-48.9-39.2h47c-0.9,6-0.6,9.7,0.9,11.9
		c1.5,2.4,4.3,3.2,8,3.2c8.2,0,11.4-4.1,12.5-9.3c0.6-3.2,0-6.7-6.2-8c-3.2-0.6-7.1-1.5-22.2-4.5c-25.4-5.2-34-12.7-30-32.5
		c4.3-19.8,23.5-36.2,62.1-36.2c33.4,0,54.7,8.2,49.6,36.6H535.8z"/>
</g>
<g>
	<g>
		<path class="st0" d="M609,171.8c0,0-0.3,0.2-0.9,0.7c-0.6,0.5-1.4,1.1-2.6,2c-2.4,1.9-5.9,4.4-10.5,7.3
			c-4.6,2.9-10.3,6.2-17.1,9.5c-6.7,3.3-14.5,6.6-23.2,9.7c-8.7,3.1-18.2,5.9-28.4,8.4c-5.1,1.2-10.4,2.3-15.7,3.3
			c-5.4,1-10.9,1.9-16.6,2.6c-11.3,1.6-23,2.5-34.9,3.1c-3,0.1-6,0.2-9,0.3c-1.5,0-3,0-4.5,0.1c-1.5,0-3,0.1-4.4,0.1
			c-6,0.2-12,0.3-18,0.4c-24,0.3-48.1-0.2-70.6-2.2c-11.2-1-22.1-2.3-32.3-4.1c-10.2-1.7-19.8-3.8-28.5-6.1
			c-8.7-2.3-16.6-4.7-23.6-7.1c-6.9-2.3-12.9-4.6-17.8-6.4c-4.9-1.9-8.7-3.4-11.3-4.5c-2.6-1.1-4-1.6-4-1.6s1.4,0.5,4,1.5
			c2.6,1,6.5,2.4,11.5,4.1c5,1.7,11,3.8,18,5.9c7,2.1,14.9,4.3,23.7,6.3c8.7,2,18.3,3.8,28.5,5.1c10.2,1.4,20.9,2.4,32.1,3
			c22.4,1.3,46.3,1,70.2,0c6-0.3,11.9-0.6,17.9-0.9c3-0.2,6-0.3,8.9-0.4c2.9-0.2,5.9-0.4,8.8-0.6c11.7-0.9,23.1-2.3,34-4.2
			c5.5-0.9,10.8-2,16-3.1c5.2-1.2,10.3-2.4,15.2-3.8c9.8-2.7,18.8-5.8,27-9c8.2-3.3,15.5-6.6,21.7-10c6.3-3.3,11.5-6.6,15.7-9.4
			c4.2-2.8,7.3-5.3,9.3-6.9c1-0.8,1.9-1.6,2.4-2c0.6-0.5,0.8-0.7,0.8-0.7L609,171.8z"/>
	</g>
</g>
<g>
	<path class="st1" d="M399.4,257.1c2.1-3.4,5.4-6.2,12.1-6.3c6.5,0,10.6,2.8,10.6,7.6c0,1.3-0.3,2.3-0.7,3.5l-8.9,1.1
		c0.6-1.1,0.9-2.4,0.9-3.8c0-1.2-0.3-2.3-1.7-2.3c-3.7,0-5.7,8.7-5.7,12.4c0,2.1,0.7,3,2.2,3c2.2,0,3.2-2,3.2-4.5l8.2,1.1
		c-1.1,5.8-4.5,10.4-12,10.4c-6.5,0-11.1-3.1-11.2-10.7C396.3,264.3,397.7,259.9,399.4,257.1z"/>
	<path class="st1" d="M428.9,239.7l10-0.1l-4,15.5c1.3-2.4,2.9-4.5,6.3-4.6c4.6,0,6.3,3.3,6.3,6.5c0,4.5-3.2,10.9-3.2,13.7
		c0,1.1,0.5,1.4,1.1,1.4c1,0,1.4-0.6,1.4-0.6l-0.9,6.3c-1.5,0.7-3.4,0.9-4.8,1c-3.9,0-6.6-1.7-6.6-5.9c0-4.6,3.1-9.8,3.1-12.9
		c0-1.3-0.6-1.7-1.6-1.7c-1.3,0-2.1,0.8-2.5,2l-4.7,18.1l-10,0.1L428.9,239.7z"/>
	<path class="st1" d="M461.5,250.5c3.1,0,5.4,1.1,6.6,3.8l4-3.2l3.9,0l-4.8,18.8c-0.4,1.5,0,2,0.9,2c1.3,0,2.2-1,2.2-1l-1.1,6.5
		c0,0-2.2,1.3-5.4,1.3c-3,0-5.4-1.1-6.4-3.7c-1.4,2-3.8,4.1-7.1,4.1c-3.2,0-7-2.1-7.1-9.4C447.1,261.6,452,250.5,461.5,250.5z
		 M460.5,272.2l3.9-15.1c-0.3-0.2-0.6-0.3-1-0.3c-3.6,0-6.6,7.8-6.6,12.3c0,3.1,1.4,3.5,2.2,3.5
		C459.6,272.6,460.1,272.5,460.5,272.2z"/>
	<path class="st1" d="M485.6,267.7c-0.7,2.7-0.7,4,0.5,4c1.4,0,2.5-1.2,2.5-1.2l-1.1,7c0,0-2.2,1-6,1c-5.8,0-6.5-4.1-6.5-6.4
		c0-1.5,0.3-3.4,0.7-5.2l7.1-27.6l10-0.1L485.6,267.7z"/>
	<path class="st1" d="M499.5,267.6c-0.7,2.7-0.7,4,0.5,4c1.4,0,2.5-1.2,2.5-1.2l-1.1,7c0,0-2.2,1-6,1c-5.8,0-6.5-4.1-6.5-6.4
		c0-1.5,0.3-3.4,0.7-5.2l7.1-27.6l10-0.1L499.5,267.6z"/>
	<path class="st1" d="M506.6,256.7c2.3-4,6.1-6.6,12.1-6.6c6.2,0,10.8,2.6,10.9,8.4c0,3.9-2,7.3-2,7.3l-14.5,0.1
		c-0.1,0.6-0.1,1.2-0.1,1.7c0,2.4,0.9,4,2.6,4c1.3,0,2.9-0.8,3.3-3.4l8,1c-1.2,5.7-4.2,9.5-11.9,9.5c-5.6,0-11.3-1.9-11.3-10.7
		C503.7,263.9,504.9,259.7,506.6,256.7z M514.5,260.6l5.6,0c0,0,0.6-1.2,0.6-2.7c0-1.3-0.7-2.1-1.8-2.1
		C516.8,255.8,515.4,258,514.5,260.6z"/>
	<path class="st1" d="M532.6,256.2l0-5l8.6-0.8l0.5,5.1c1.5-2.8,3.4-5.6,7.6-5.6c4.6,0,6.3,3.3,6.3,6.5c0,4.5-3.2,10.9-3.2,13.7
		c0,1.1,0.5,1.4,1.1,1.4c1,0,1.4-0.6,1.4-0.6l-0.9,6.3c-1.5,0.7-3.4,0.9-4.8,1c-3.9,0-6.6-1.7-6.6-5.9c0-4.6,3.1-9.8,3.1-12.9
		c0-1.3-0.6-1.7-1.6-1.7c-1.3,0-2.1,0.8-2.5,2l-4.6,18.2l-10,0.1L532.6,256.2z"/>
	<path class="st1" d="M569.9,249.7c2.7,0,5.2,0.7,6.5,3.9l4.2-3.3l3.9,0l-7.4,28.5c-1.8,7-6.6,10.4-13.5,10.4
		c-5.4,0-11.1-2-11.2-6.7c0-0.9,0.2-1.8,0.5-2.8l8.1-0.9c-0.3,0.6-0.3,1.2-0.3,1.5c0,1.5,1.1,2.1,2.4,2c2,0,3.3-1.5,4-4.3l1.6-6
		c-0.9,1.5-2.6,3.7-6.1,3.7c-2.6,0-6.6-1.2-6.6-8.7C556,259.2,560.5,249.8,569.9,249.7z M569.6,268.9l3.4-12.7
		c-0.3-0.1-0.6-0.2-1-0.2c-4.4,0-6.1,6.5-6.1,9.9c0,2.4,0.7,3.6,2,3.6C568.8,269.6,569.4,269.1,569.6,268.9z"/>
	<path class="st1" d="M585.5,256.1c2.3-4,6.1-6.6,12.1-6.6c6.2,0,10.8,2.6,10.9,8.4c0,3.9-2,7.3-2,7.3l-14.5,0.1
		c-0.1,0.6-0.1,1.2-0.1,1.7c0,2.4,0.9,4,2.6,4c1.3,0,2.9-0.8,3.3-3.4l8,1c-1.2,5.7-4.2,9.5-11.9,9.5c-5.6,0-11.3-1.9-11.3-10.7
		C582.6,263.3,583.8,259.2,585.5,256.1z M593.4,260l5.6,0c0,0,0.6-1.2,0.6-2.7c0-1.3-0.7-2.1-1.8-2.1
		C595.7,255.2,594.4,257.4,593.4,260z"/>
</g>
<path d="M627.5,168.1c-0.8-1.7-1.6-3.4-3-5c-2.7-3-7.7-5.1-12.7-5.5c2.8-3.5,5-7.8,6.8-11.9c1.8-4.2,3.3-8.4,5.3-12.6
	c-1.6,0.9-3.2,1.7-4.8,2.6c-2,1-3.9,2.1-5.9,3.7c-3.8,3.1-7.5,8.5-9.6,13.7c-3-1.9-7-2.8-10.8-3.5c-3.9-0.6-7.9-0.9-11.7-1.7
	c0.6,1.4,1.2,2.8,1.8,4.3c0.7,1.7,1.5,3.5,2.8,5.1c2.4,3,6.9,5.1,11.7,5.8c-2.4,3.4-4.4,7.3-6,11.2c-1.7,4.2-3.2,8.4-5.1,12.6
	c1.6-0.9,3.2-1.8,4.8-2.6c1.9-1.1,3.9-2.2,5.9-3.8c3.6-3,7-8,9.1-13.1c0.2,0.1,0.4,0.3,0.6,0.4c3.1,1.8,7.2,2.7,11.1,3.2
	c3.9,0.5,7.9,0.7,11.9,1.3C628.8,170.9,628.2,169.5,627.5,168.1z"/>
<g id="XMLID_1_">
	<g>
		<path d="M284.7,123.9c4,4.1,5.7,10.1,6,15.9c-10.7-2-21.2-4.8-31.5-8.5c5.5-4.2,11.9-9.1,17-12.2
			C279.2,119.6,282.6,121.8,284.7,123.9z"/>
		<path d="M259.2,131.3c-1.2,0.9-2.4,1.8-3.5,2.6c-4.5,0.1-9.5-0.2-13.8,1.2c2.6-5.1,4.6-10.5,5.8-16.1c0.7-3,1.1-6,1.3-9.2
			c0.1-2,0.2-4,0.1-6c12,1.9,22.7,6.1,30.7,13.2v0.1c-1.1,0.5-2.4,1.2-3.7,2C271.1,122.1,264.7,127.1,259.2,131.3z"/>
		<path d="M231.8,279.8c-0.7,1.1-2.5,3.1-2.7,3.3c-24.3-13.2-34.6-27.4-58.9-44.8h-0.3c-4.3,1.6-10.2,6.6-9.6,11.9
			c3,4.8,5.6,9.4,6.8,11.8c-2.5,0.6-4.7,1.1-6.8,1.6c-8.8,2-14.5,3.5-27.3,6.8c-1.6,0.4-3.2,0.8-5,1.3l-0.7,0.1
			c-5.2-5-10.2-10.4-14.4-16.3c-4.3-6.1-8.1-13-8.8-20.5c-0.3-3-0.3-6,0-8.6c0.4-4.5,1.2-7.5,3.7-11.2c4.3-6.3,16.9-8.4,22.4-3.3
			c0,0,0.1,0.1,0.1,0.1c6,4.4,13.5,6.4,20.8,8c23.5,5.2,48.6,5.4,72.2,0.6l1.2-0.3c8.5,13.3,17.2,25.1,28.1,36.6l-3.4,4
			c4,5.5,7.2,10.2,6.1,22.1c-5.2,0.3-9.9-0.4-15.7-1.2C238.6,282,233.8,280.9,231.8,279.8z"/>
		<path class="st0" d="M249.2,103.8c0,2,0,4-0.1,6c-0.2,3.1-0.7,6.2-1.3,9.2c-9.9-0.4-19.8-1.8-29.4-4.1c-7.4-1.8-14.7-4.1-22.3-5.2
			c-17.1-2.4-34.3,1.9-50.6,7.4l-0.6,0.3c-5.6-11.2-8.9-23.8-4.6-35.3l0-0.6c1-0.1,2.1-0.3,3.1-0.4c9.1-1.3,17.9-4.2,26.9-6.1
			c24.4-5,48.4-1.8,72.9,2.4C246.9,85.7,249.1,94.5,249.2,103.8z M234.1,98.5c0.4-3.9-1.8-7.4-4.9-7.9s-6,2.1-6.5,6
			c-0.4,3.9,1.8,7.4,4.9,8C230.8,105.1,233.6,102.4,234.1,98.5z M212.4,97.2c0.4-3.9-1.8-7.4-4.9-7.9c-3.1-0.5-6,2.1-6.5,6
			c-0.4,3.9,1.8,7.4,4.9,8C209,103.8,211.9,101.1,212.4,97.2z"/>
		<path class="st1" d="M243.1,77.3L243.1,77.3c-24.5-4.1-48.5-7.3-72.8-2.3c-9,1.9-17.8,4.8-26.9,6.1c-1,0.1-2.1,0.3-3.1,0.4
			c-7.3,0.8-14.8,0.6-22.2,0.5c-13.8-0.2-27.6-0.5-41.4-0.7c5.1-2,9.5-5.2,12.4-9.8c-1.2-0.4-2.4-0.9-3.6-1.3
			c1.4,0.1,2.7,0.2,4.1,0.2c1.9-3.8,1.7-8,0.1-11.9l0.3-0.5c23.8,2.8,48.2-3.1,71.9-6.6c23.9-3.5,47.8-5.3,68.7,6.9c0,0,0,0,0,0l0,0
			L243.1,77.3z"/>
		<path class="st0" d="M243.1,77.3l-12.6-19c0.8,0.8,1.5,1.7,2.2,2.6c3.4,4.1,6.4,8.6,8.8,13.3C242.1,75.2,242.6,76.3,243.1,77.3z"
			/>
		<path d="M247.7,119c-1.2,5.6-3.2,11-5.8,16.1c-7.6,14.7-20.5,26.7-36.6,34.3c-4,1.9-8.1,3.5-12.4,4.8l-0.2-0.6
			c-16.9-13.2-31.5-29.3-42.9-47.5c-1.8-2.8-3.4-5.8-5-8.8l0.6-0.3c16.3-5.5,33.6-9.8,50.6-7.4c7.5,1.1,14.9,3.4,22.3,5.2
			C228,117.2,237.8,118.5,247.7,119z"/>
		<path d="M229.2,90.6c3.1,0.5,5.3,4.1,4.9,7.9c-0.4,3.9-3.3,6.6-6.5,6c-3.1-0.6-5.3-4.1-4.9-8C223.1,92.7,226.1,90.1,229.2,90.6z"
			/>
		<path class="st0" d="M224.1,219.8l0.4,0.7l-1.2,0.3c-23.6,4.8-48.7,4.6-72.2-0.6c-7.3-1.6-14.8-3.6-20.8-8c0,0-0.1-0.1-0.1-0.1
			l0.2-0.3c-3.4-4.7-6.1-9.9-7.9-15.4c30.3,14.8,63.6,14.6,97.1,11h0C221.1,211.6,222.6,215.8,224.1,219.8z"/>
		<path d="M219.6,207.4L219.6,207.4c-33.5,3.6-66.9,3.8-97.1-11c-2.1-6.7-2.8-13.7-1.7-20.7c0.2-1.6,0.6-3.2,1-4.8l0.4-0.8
			c10.2,4.5,21.5,7.4,33.5,8.3c13.1,1,25.7-0.6,37.2-4.1c4.3-1.3,8.5-2.9,12.4-4.8C210.4,182.2,215.2,195.1,219.6,207.4z"/>
		<path d="M207.5,89.3c3.1,0.5,5.3,4.1,4.9,7.9c-0.4,3.9-3.3,6.6-6.5,6c-3.1-0.6-5.3-4.1-4.9-8C201.4,91.4,204.3,88.8,207.5,89.3z"
			/>
		<path d="M89.9,58c-0.1,0-0.2,0-0.2,0c17.1-19.9,45.7-31.9,77-29.6c26.1,1.9,48.8,13.4,63.8,30c-20.8-12.1-44.8-10.4-68.7-6.9
			C138.1,54.9,113.7,60.8,89.9,58z"/>
		<path d="M95.2,151.9c-15-14.7-23.5-34.3-21.9-55c0.4-5.3,1.4-10.5,3.1-15.5c0.1,0,0.2-0.1,0.3-0.1c13.8,0.2,27.6,0.5,41.4,0.7
			c7.4,0.1,14.8,0.3,22.2-0.5l0,0.6c-4.3,11.5-1,24,4.6,35.3c1.5,3.1,3.2,6,5,8.8c11.4,18.2,26,34.3,42.9,47.5l0.2,0.6
			c-11.5,3.6-24.1,5.1-37.2,4.1c-12-0.9-23.3-3.8-33.5-8.3C111.8,165.5,102.7,159.3,95.2,151.9z"/>
		<path d="M160.2,263.6c-0.7,4.5-1.9,8.9-4.3,12.5c-0.3,0.5-0.7,1-1.2,1.3c-0.5,0.3-1.1,0.3-1.7,0.3c-7,0.1-14.1-3.2-20.1-7.4
			C145.7,267.1,151.4,265.6,160.2,263.6z"/>
		<path d="M79,185.6c1.9-5.6,3.7-13.4,5.3-20c0.5-2.3,1-4.4,1.5-6.3l4.9-2.5c3.5-2.8,4.5-4.6,4.6-4.9c7.5,7.4,16.6,13.6,26.9,18.1
			l-0.4,0.8c-0.4,1.6-0.8,3.2-1,4.8h0c-13,8.1-30.3,14-43.5,14.3C77.8,188.8,78.4,187.3,79,185.6L79,185.6z"/>
		<path class="st1" d="M89.6,58.5c1.6,3.9,1.8,8.1-0.1,11.9c-1.3,0-2.7-0.1-4.1-0.2c-0.7-0.3-1.5-0.5-2.2-0.8L89.6,58.5z"/>
		<path class="st1" d="M89.9,58l-0.3,0.5c0-0.1-0.1-0.2-0.1-0.3c0-0.1,0.1-0.1,0.2-0.2C89.8,58,89.8,58,89.9,58z"/>
		<path class="st2" d="M89.7,57.9c0,0-0.1,0.1-0.2,0.2c0-0.1-0.1-0.1-0.1-0.2C89.5,57.9,89.6,57.9,89.7,57.9z"/>
		<path class="st1" d="M89.5,58.1c0,0.1,0.1,0.2,0.1,0.3l-6.4,10.9c-0.5-0.1-0.9-0.3-1.3-0.4C84.1,65.2,86.6,61.5,89.5,58.1z"/>
		<path class="st1" d="M89.4,57.9c0,0.1,0.1,0.1,0.1,0.2c-2.9,3.4-5.4,7-7.6,10.8c-2.3-0.8-4.7-1.4-7.1-2c-2-1.2-3.6-2.8-4.8-4.8
			c-0.8-1.4-1.3-3-2-4.6c-2.6-6.1-7.7-11.2-13.9-13.8c8.9-0.1,18.3-0.1,26.2,4.2C84.3,50.1,87.6,53.8,89.4,57.9z"/>
		<path class="st1" d="M85.4,70.2c1.2,0.4,2.4,0.9,3.6,1.3c-2.9,4.6-7.3,7.7-12.4,9.8c-0.1,0-0.2,0-0.3,0c0-0.2,0.1-0.3,0.1-0.5
			l6.4-11C83.8,70,84.6,70.1,85.4,70.2z"/>
		<path class="st1" d="M83.2,69.4c0.7,0.3,1.5,0.5,2.2,0.8c-0.8-0.1-1.6-0.2-2.5-0.3L83.2,69.4z"/>
		<path class="st1" d="M83.2,69.4L83,69.8c-0.5-0.1-1-0.2-1.4-0.3c0.1-0.2,0.2-0.4,0.4-0.6C82.3,69.1,82.8,69.2,83.2,69.4z"/>
		<path class="st1" d="M83,69.8l-6.4,11c1.3-3.9,3-7.7,5-11.3C82,69.7,82.5,69.8,83,69.8z"/>
		<path d="M84.3,165.6c-1.5,6.6-3.4,14.4-5.3,20h0c-2.7,1.5-6,2.1-8.9,1.9c-5.7-0.5-10.8-4.1-14.7-8.4
			C64.7,173.8,74.7,169.1,84.3,165.6z"/>
		<path class="st1" d="M81.9,69c-0.1,0.2-0.2,0.4-0.4,0.6c-2.4-0.5-4.7-1.3-6.7-2.6C77.2,67.5,79.6,68.2,81.9,69z"/>
		<path class="st1" d="M74.8,67c2,1.2,4.3,2,6.7,2.6c-2,3.6-3.7,7.3-5,11.3l-0.3,0.5c0,0,0.1,0,0.1,0c0,0,0,0.1,0,0.1
			c-4.6,1.8-9.6,2.8-14.5,3.1c-10.4,0.6-21-0.9-31.3,0.7c8.8-5.6,15.5-14.6,25.3-17.9C62,65.2,68.5,65.5,74.8,67z"/>
		<path d="M76.7,81.3c-0.1,0.1-0.2,0.1-0.3,0.1c0,0,0-0.1,0-0.1C76.5,81.3,76.6,81.3,76.7,81.3z"/>
		<path class="st2" d="M76.3,81.3l0.3-0.5c0,0.1-0.1,0.3-0.1,0.5C76.4,81.3,76.3,81.3,76.3,81.3z"/>
	</g>
	<g>
		<path class="st3" d="M147.4,232.9c2.6,1.8,8.2,9.9,12.8,17.4c3,4.8,5.6,9.4,6.8,11.8c0.1,0.1,0.1,0.3,0.2,0.4"/>
	</g>
</g>
<g>
	<path class="st4" d="M201.4,77.3c-1.6-0.2-3.2-0.6-4.6,0.1c2.4,0.6,4.9,1.4,6.7,3c1.2,1.1,1.7,1.6,2.5,3.2c2-1.2,4.2-1.6,6.4-2.4
		C211.5,78.8,207,78,201.4,77.3z"/>
	<path class="st4" d="M233.1,78.4c-3.9,0.7-7.9,1.5-11,3.9c2.2,0.8,4.4,1.2,6.4,2.4c0.9-1.6,1.3-2.1,2.5-3.2c1.9-1.6,4.3-2.5,6.7-3
		C236.3,77.8,234.6,78.1,233.1,78.4z"/>
</g>
</svg>
